<?xml version="1.0" standalone="no"?>
<!DOCTYPE svg PUBLIC "-//W3C//DTD SVG 20010904//EN"
 "http://www.w3.org/TR/2001/REC-SVG-20010904/DTD/svg10.dtd">
<svg version="1.0" xmlns="http://www.w3.org/2000/svg"
 width="512.000000pt" height="512.000000pt" viewBox="0 0 512.000000 512.000000"
 preserveAspectRatio="xMidYMid meet">
<metadata>
Created by potrace 1.14, written by Peter Selinger 2001-2017
</metadata>
<g transform="translate(0.000000,512.000000) scale(0.100000,-0.100000)"
fill="#000000" stroke="none">
<path d="M2527 4754 c-1 -2 -43 -5 -92 -9 -50 -3 -103 -8 -120 -11 -16 -2 -46
-6 -65 -9 -19 -2 -51 -7 -70 -10 -19 -3 -44 -8 -55 -9 -11 -2 -20 -4 -20 -5 0
-1 -11 -4 -25 -6 -33 -6 -65 -13 -65 -15 0 -1 -13 -4 -30 -6 -16 -3 -35 -10
-42 -16 -7 -6 -13 -8 -13 -5 0 4 -18 0 -39 -8 -22 -7 -42 -11 -45 -8 -3 4 -6
1 -6 -6 0 -8 -7 -11 -15 -7 -8 3 -15 2 -15 -3 0 -9 -48 -26 -62 -23 -5 1 -8
-2 -8 -8 0 -6 -3 -9 -7 -8 -5 1 -30 -8 -58 -21 -27 -13 -56 -25 -64 -27 -8 -1
-17 -6 -20 -11 -3 -5 -27 -20 -53 -33 -27 -14 -48 -28 -48 -32 0 -5 -9 -8 -20
-8 -11 0 -20 -5 -20 -10 0 -6 -10 -14 -22 -19 -23 -9 -56 -32 -88 -63 -10 -9
-21 -14 -24 -11 -3 3 -8 -2 -12 -11 -3 -9 -11 -16 -18 -16 -7 0 -23 -13 -36
-30 -14 -16 -31 -29 -38 -30 -7 0 -11 -3 -9 -7 3 -5 -1 -14 -9 -21 -8 -7 -14
-10 -14 -7 0 4 -17 -11 -37 -32 -21 -21 -37 -41 -35 -45 1 -5 -5 -8 -14 -8 -8
0 -12 -4 -9 -10 3 -5 -1 -10 -9 -10 -9 0 -15 -4 -13 -9 1 -5 -9 -18 -22 -30
-13 -12 -21 -21 -16 -21 4 0 -4 -9 -19 -21 -14 -11 -24 -25 -21 -30 4 -5 2 -9
-4 -9 -5 0 -13 -9 -16 -21 -4 -11 -9 -18 -13 -15 -6 6 -40 -45 -65 -97 -7 -15
-16 -24 -20 -20 -4 3 -7 -3 -7 -15 0 -12 -4 -22 -10 -22 -5 0 -10 -6 -10 -14
0 -8 -6 -21 -13 -28 -7 -7 -21 -33 -32 -58 -11 -25 -23 -48 -28 -51 -5 -3 -8
-9 -7 -13 1 -4 -4 -21 -11 -39 -6 -18 -11 -35 -10 -39 0 -5 -4 -8 -11 -8 -6 0
-9 -3 -5 -6 3 -4 0 -19 -9 -35 -8 -16 -12 -29 -10 -29 3 0 -2 -16 -10 -35 -8
-19 -11 -35 -8 -35 4 0 0 -7 -7 -17 -8 -9 -13 -18 -11 -20 2 -2 -2 -29 -8 -60
-43 -204 -43 -418 0 -583 27 -107 35 -130 44 -130 5 0 6 -3 3 -6 -3 -4 -1 -16
5 -28 7 -11 13 -23 14 -26 1 -3 5 -15 9 -27 4 -13 11 -23 16 -23 5 0 8 -3 7
-7 -3 -15 22 -63 32 -63 6 0 9 -4 6 -9 -3 -5 5 -20 19 -35 13 -14 22 -26 20
-26 -6 0 21 -33 57 -71 15 -16 25 -29 22 -29 -3 0 9 -12 28 -27 18 -16 42 -39
52 -52 11 -13 34 -30 53 -37 18 -8 33 -18 33 -22 0 -10 133 -90 135 -82 1 3 9
-3 19 -13 10 -9 22 -15 27 -12 5 4 9 2 9 -3 0 -5 10 -13 23 -17 32 -10 34 -11
116 -40 41 -15 83 -29 95 -31 51 -12 62 -14 84 -18 12 -3 25 -7 30 -9 4 -3 34
-8 67 -12 33 -4 71 -9 85 -12 120 -19 315 -31 655 -38 370 -8 473 -16 585 -45
25 -6 53 -12 63 -13 9 -1 17 -5 17 -9 0 -4 7 -8 15 -8 36 0 121 -73 150 -130
21 -41 27 -137 14 -215 -12 -66 -64 -196 -84 -207 -7 -4 -16 -19 -19 -33 -4
-14 -11 -23 -16 -20 -6 3 -10 1 -10 -5 0 -6 -17 -28 -39 -50 -21 -21 -36 -42
-33 -45 3 -3 0 -5 -7 -5 -6 0 -30 -18 -52 -40 -22 -21 -42 -39 -45 -39 -3 1
-21 -13 -40 -29 -19 -17 -34 -28 -34 -26 0 3 -15 -6 -33 -20 -19 -15 -39 -26
-46 -26 -6 0 -14 -7 -17 -15 -4 -8 -10 -12 -15 -10 -4 3 -17 -3 -28 -14 -11
-11 -22 -17 -25 -13 -3 3 -6 0 -6 -6 0 -7 -3 -11 -7 -10 -11 2 -66 -24 -74
-35 -3 -5 -9 -8 -13 -8 -9 1 -120 -53 -127 -62 -3 -5 -9 -8 -13 -7 -6 2 -36
-9 -191 -71 -16 -7 -33 -13 -37 -14 -5 -2 -10 -4 -13 -5 -3 -1 -9 -4 -15 -5
-5 -1 -12 -4 -15 -5 -3 -1 -8 -3 -12 -5 -5 -1 -16 -5 -25 -8 -59 -22 -71 -26
-100 -29 -10 -1 -18 -7 -18 -12 0 -5 -3 -7 -6 -3 -3 3 -18 1 -33 -5 -14 -5
-34 -12 -43 -14 -17 -4 -37 -9 -75 -18 -10 -3 -44 -12 -75 -20 -32 -9 -70 -18
-85 -21 -36 -6 -72 -13 -103 -20 -14 -3 -38 -7 -55 -10 -16 -2 -50 -7 -75 -11
-25 -4 -57 -7 -72 -7 -15 -1 -25 -4 -22 -9 3 -5 8 -6 12 -4 4 2 27 0 52 -5 25
-5 65 -11 90 -14 25 -2 56 -7 70 -10 24 -5 63 -9 220 -20 173 -13 400 -5 575
20 28 4 59 9 70 11 11 3 36 7 55 10 19 3 43 7 52 10 9 3 25 6 35 8 10 2 38 9
63 16 25 7 56 14 70 17 13 2 30 9 37 15 7 6 13 8 13 4 0 -7 110 32 126 45 6 5
13 6 17 3 3 -3 16 2 29 10 14 9 28 13 31 9 4 -3 7 -1 7 6 0 7 4 10 9 6 5 -3
16 1 24 9 8 8 18 12 21 8 4 -3 11 -1 15 6 4 8 14 15 22 16 19 4 73 29 79 37 3
4 28 18 55 33 86 45 129 73 133 85 2 6 7 9 11 7 3 -2 24 9 45 25 22 16 36 29
31 29 -4 0 10 12 31 26 21 15 65 52 97 84 31 32 57 55 57 52 1 -4 6 3 13 14 7
12 29 42 50 67 22 25 39 49 39 54 1 4 9 14 20 21 10 7 16 18 13 23 -4 5 -2 9
2 9 10 0 79 121 75 133 -1 4 3 7 8 7 6 0 10 5 10 11 0 6 6 25 14 42 52 120 70
214 69 367 -1 84 -5 131 -18 180 -4 14 -8 34 -10 45 -2 11 -4 22 -5 25 -1 3
-2 8 -1 13 0 4 -3 7 -7 7 -4 0 -14 20 -21 45 -7 25 -17 45 -22 45 -5 0 -8 3
-7 8 4 13 -32 72 -44 72 -6 0 -8 3 -5 7 4 3 -4 16 -18 28 -13 13 -21 26 -18
29 4 3 -1 6 -11 6 -9 0 -14 5 -11 10 3 6 2 10 -4 10 -5 0 -23 14 -40 31 -17
17 -31 28 -31 25 0 -3 -11 6 -25 19 -13 14 -31 25 -39 25 -8 0 -21 6 -28 13
-7 8 -43 26 -78 41 -36 15 -73 32 -83 37 -10 5 -22 7 -27 4 -6 -4 -10 -1 -10
4 0 6 -3 10 -7 9 -5 -1 -24 3 -43 10 -19 6 -46 13 -60 16 -14 3 -35 7 -47 10
-41 10 -67 16 -108 22 -22 4 -51 8 -65 11 -14 2 -43 5 -65 8 -22 2 -62 6 -90
9 -96 11 -293 18 -650 21 -198 2 -387 6 -420 10 -68 6 -180 33 -210 49 -30 16
-85 76 -85 92 0 23 -1 29 -10 39 -8 10 -6 166 3 195 10 34 19 58 43 107 14 29
24 53 22 55 -4 4 17 28 109 126 38 40 67 74 65 77 -3 3 2 5 12 5 9 0 19 7 22
15 4 8 11 15 16 15 10 0 53 32 92 68 14 12 17 13 12 2 -4 -8 1 -5 12 7 11 12
22 19 26 16 3 -4 6 0 6 7 0 7 3 10 6 7 4 -4 19 2 33 12 14 10 29 19 34 20 4 0
34 14 66 30 32 17 61 27 65 24 3 -4 6 0 6 7 0 7 3 11 6 7 4 -3 19 0 35 8 15 8
36 17 46 18 10 2 27 7 38 11 43 17 71 25 105 32 19 4 40 9 45 11 89 26 266 46
405 46 95 1 295 -15 295 -23 0 -1 9 -3 20 -5 11 -2 36 -7 55 -11 19 -5 40 -9
45 -10 6 -1 13 -3 18 -4 4 -1 10 -3 15 -4 4 -2 25 -8 47 -14 22 -6 44 -11 49
-11 5 0 12 -4 15 -10 4 -6 16 -12 26 -14 11 -2 46 -16 77 -30 31 -15 61 -27
66 -27 6 0 13 -7 16 -16 4 -9 9 -14 13 -11 3 4 19 -3 34 -14 16 -11 29 -17 29
-13 0 4 7 -1 15 -12 8 -10 15 -14 15 -9 0 6 3 6 8 0 4 -6 38 -35 77 -65 38
-30 80 -65 92 -78 13 -14 23 -21 23 -16 0 4 8 -2 18 -15 9 -12 38 -45 64 -72
26 -27 47 -52 47 -55 1 -5 17 -26 48 -60 12 -13 20 -24 17 -24 -3 0 1 -7 8
-15 31 -34 38 -45 31 -45 -4 0 0 -5 10 -11 9 -6 15 -14 12 -20 -4 -5 -2 -9 3
-9 4 0 14 -16 22 -35 8 -19 17 -35 22 -35 4 0 8 -7 8 -15 0 -8 5 -15 11 -15 5
0 7 -5 3 -11 -3 -6 -1 -15 6 -19 8 -5 15 -19 17 -31 2 -13 10 -30 18 -39 8 -9
12 -20 8 -23 -3 -4 -1 -7 5 -7 7 0 11 -3 10 -7 -3 -12 34 -103 41 -103 4 0 7
10 8 22 1 11 8 25 15 29 7 5 10 9 6 9 -4 0 -2 15 3 33 6 17 12 39 14 47 2 8 4
15 5 15 2 0 7 22 15 60 3 17 9 39 12 50 4 11 8 22 8 25 4 19 16 91 20 120 3
19 8 55 12 80 8 59 9 321 0 385 -11 79 -18 119 -23 135 -3 8 -8 29 -11 45 -3
17 -9 38 -15 48 -5 10 -11 26 -13 35 -6 34 -58 157 -70 167 -7 6 -13 12 -13
15 -9 38 -26 69 -35 63 -7 -3 -9 -3 -5 2 8 9 -22 65 -34 65 -4 0 -8 5 -8 10 0
17 -102 140 -112 134 -4 -3 -8 -1 -8 4 0 19 -175 182 -196 182 -4 0 -26 16
-50 35 -23 19 -45 35 -49 35 -4 0 -34 16 -68 36 -34 20 -68 37 -74 37 -7 0
-13 4 -13 9 0 4 -4 8 -10 8 -5 0 -33 11 -62 24 -50 23 -144 59 -160 62 -5 1
-11 3 -15 4 -5 1 -11 2 -15 1 -5 0 -8 3 -8 7 0 5 -6 9 -12 9 -7 0 -40 8 -73
17 -33 10 -69 20 -80 22 -11 2 -33 7 -50 10 -16 4 -39 8 -50 10 -11 1 -20 3
-20 4 0 2 -36 9 -85 14 -25 3 -56 8 -68 10 -55 12 -446 28 -455 20z"/>
</g>
</svg>
