<?xml version="1.0" standalone="no"?>
<!DOCTYPE svg PUBLIC "-//W3C//DTD SVG 20010904//EN"
 "http://www.w3.org/TR/2001/REC-SVG-20010904/DTD/svg10.dtd">
<svg version="1.0" xmlns="http://www.w3.org/2000/svg"
 width="512.000000pt" height="512.000000pt" viewBox="0 0 512.000000 512.000000"
 preserveAspectRatio="xMidYMid meet">
<metadata>
Created by potrace 1.14, written by Peter Selinger 2001-2017
</metadata>
<g transform="translate(0.000000,512.000000) scale(0.100000,-0.100000)"
fill="#000000" stroke="none">
<path d="M2567 4354 c-1 -1 -47 -5 -102 -8 -55 -3 -111 -8 -125 -11 -33 -6
-109 -16 -137 -18 -13 0 -23 -5 -23 -10 0 -4 -3 -6 -8 -3 -4 2 -34 -2 -67 -10
-33 -9 -66 -16 -72 -16 -7 -1 -13 -5 -13 -10 0 -4 -3 -7 -7 -7 -5 1 -10 1 -13
-1 -3 -1 -14 -3 -25 -5 -12 -2 -39 -12 -60 -21 -22 -9 -41 -16 -42 -15 -2 0
-42 -20 -90 -45 -49 -26 -98 -52 -110 -58 -13 -6 -23 -14 -23 -18 0 -5 -6 -8
-12 -8 -7 0 -25 -10 -40 -23 -14 -12 -62 -51 -106 -87 -44 -36 -79 -67 -78
-70 2 -3 -5 -13 -16 -22 -10 -10 -18 -16 -18 -13 0 3 -6 0 -14 -7 -8 -7 -12
-15 -11 -17 2 -2 -11 -17 -28 -33 -18 -17 -25 -27 -17 -23 8 5 4 -3 -10 -17
-46 -48 -128 -164 -108 -153 8 4 7 1 -2 -7 -18 -16 -73 -118 -63 -118 4 0 -1
-6 -12 -13 -10 -8 -15 -19 -11 -25 3 -6 2 -13 -3 -16 -9 -6 -47 -110 -55 -152
-2 -10 -9 -32 -15 -47 -6 -15 -10 -31 -10 -35 1 -4 0 -9 -1 -12 -1 -3 -3 -16
-5 -30 -2 -14 -6 -50 -10 -80 -14 -102 -6 -241 20 -338 7 -29 13 -55 13 -57 1
-14 37 -101 45 -106 5 -3 8 -9 8 -13 -1 -13 13 -42 30 -61 10 -11 18 -24 19
-30 2 -25 156 -195 176 -195 5 0 15 -9 22 -20 7 -11 19 -20 27 -20 8 0 15 -3
15 -8 0 -4 8 -12 19 -17 40 -22 156 -78 158 -77 1 0 30 -10 64 -24 35 -13 65
-22 67 -19 3 2 13 0 22 -5 10 -5 33 -12 51 -15 19 -2 56 -9 82 -15 88 -18 206
-27 442 -35 510 -16 519 -16 625 -45 137 -37 194 -104 192 -228 0 -71 -6 -95
-40 -172 -58 -135 -235 -289 -457 -400 -38 -19 -72 -38 -73 -43 -2 -4 -8 -5
-13 -1 -5 3 -9 0 -9 -5 0 -6 -3 -10 -7 -9 -11 4 -127 -44 -134 -55 -3 -5 -8
-8 -10 -6 -2 1 -15 -1 -29 -5 -14 -5 -27 -9 -30 -10 -3 -1 -11 -5 -17 -9 -7
-5 -13 -6 -13 -3 0 3 -24 -4 -52 -15 -29 -12 -60 -22 -68 -24 -8 -2 -42 -11
-75 -21 -72 -21 -72 -21 -110 -29 -16 -3 -55 -12 -85 -20 -30 -7 -73 -16 -95
-19 -22 -3 -53 -8 -70 -12 -16 -4 -42 -7 -57 -7 -15 0 -25 -3 -23 -6 6 -6 22
-9 90 -17 28 -3 53 -8 56 -10 16 -10 204 -19 374 -18 188 2 293 13 453 49 12
3 31 7 42 10 11 3 28 7 38 9 38 9 159 50 197 67 23 10 47 19 55 21 8 2 17 5
20 8 3 3 32 18 65 35 96 48 165 92 157 100 -4 5 -2 5 4 2 10 -6 52 23 96 66
10 9 18 14 18 11 0 -10 146 139 176 181 16 22 35 46 42 53 6 7 12 17 12 22 0
5 6 15 13 22 21 23 67 119 61 129 -3 5 -1 9 4 9 9 0 36 80 48 140 16 85 9 267
-13 320 -3 8 -7 18 -8 23 -2 4 -4 9 -5 12 -1 3 -3 8 -4 13 -20 85 -136 228
-222 272 -16 8 -31 17 -34 20 -22 22 -173 78 -275 101 -63 14 -77 16 -215 33
-103 13 -224 18 -525 21 -183 2 -352 6 -376 10 -81 10 -144 27 -175 46 -102
62 -92 266 20 414 42 57 196 204 196 189 0 -3 26 13 58 34 31 22 62 40 67 41
6 2 31 13 57 26 50 25 208 78 280 94 341 76 707 25 945 -131 23 -16 44 -28 48
-28 21 0 258 -213 248 -223 -2 -3 9 -15 24 -27 15 -12 27 -25 27 -28 -1 -4 11
-25 26 -47 50 -72 116 -194 112 -207 -1 -5 2 -8 8 -8 6 0 9 -3 8 -7 -2 -9 43
-115 48 -111 1 2 6 17 9 33 8 39 13 59 15 63 2 1 4 7 5 12 1 6 3 11 5 13 1 1
3 9 5 17 2 8 8 38 15 65 6 28 14 60 16 73 2 12 6 34 9 50 28 141 21 423 -12
502 -3 8 -8 24 -10 34 -16 83 -111 275 -160 324 -7 7 -13 17 -13 22 0 20 -173
180 -251 232 -174 117 -420 216 -603 243 -21 3 -41 7 -45 9 -17 10 -384 38
-394 30z"/>
</g>
</svg>
